<?xml version="1.0" standalone="no"?>
<!DOCTYPE svg PUBLIC "-//W3C//DTD SVG 20010904//EN"
 "http://www.w3.org/TR/2001/REC-SVG-20010904/DTD/svg10.dtd">
<svg version="1.0" xmlns="http://www.w3.org/2000/svg"
 width="300.000000pt" height="295.000000pt" viewBox="0 0 300.000000 295.000000"
 preserveAspectRatio="xMidYMid meet">
<metadata>
Created by potrace 1.10, written by Peter Selinger 2001-2011
</metadata>
<g transform="translate(0.000000,295.000000) scale(0.100000,-0.100000)"
fill="#000000" stroke="none">
<path d="M740 2526 c-92 -34 -127 -51 -149 -73 -13 -13 -28 -23 -33 -23 -9 0
-77 -64 -81 -77 -1 -5 -6 -7 -12 -5 -5 2 -7 1 -3 -3 4 -4 -7 -28 -23 -55 -16
-26 -29 -55 -29 -64 0 -10 -4 -14 -10 -11 -5 3 -11 -2 -11 -12 -1 -10 -3 -29
-5 -43 -3 -14 -4 -81 -5 -150 0 -113 2 -131 27 -190 14 -36 31 -68 38 -72 8
-6 8 -8 0 -8 -6 0 16 -29 51 -65 34 -36 59 -67 57 -70 -3 -3 0 -5 6 -5 6 0 31
-13 55 -30 25 -16 55 -30 67 -30 14 0 19 -4 14 -12 -5 -8 -2 -9 9 -5 10 4 17
2 17 -4 0 -6 7 -9 15 -5 8 3 15 2 15 -3 0 -4 6 -8 13 -9 6 0 56 -4 110 -8 54
-4 100 -12 104 -17 4 -6 0 -8 -11 -4 -11 4 -15 3 -10 -4 3 -6 -12 -28 -35 -50
-22 -22 -41 -36 -41 -32 -1 4 -7 -7 -16 -26 -12 -28 -14 -101 -15 -408 0 -342
1 -376 17 -394 15 -17 32 -19 150 -19 131 0 133 0 153 26 14 17 21 42 21 68 0
54 10 67 56 73 42 5 90 -12 135 -48 22 -18 30 -19 49 -9 16 9 20 9 15 1 -5 -9
46 -11 197 -10 l203 1 37 30 c33 26 43 29 99 26 53 -3 63 -6 65 -23 1 -11 5
-37 9 -58 4 -28 2 -37 -6 -31 -8 4 -9 3 -5 -4 4 -7 13 -12 21 -12 7 0 15 -7
19 -15 4 -12 28 -15 130 -15 179 0 166 -27 167 334 1 160 2 325 3 366 1 97
-11 130 -73 192 -28 28 -54 62 -57 75 -4 12 -10 20 -15 17 -5 -3 -6 1 -3 9 3
8 -1 21 -8 28 -7 8 -22 33 -32 57 -11 23 -23 42 -27 42 -5 0 -6 6 -3 14 3 7
-1 20 -8 27 -14 15 -60 111 -57 119 5 13 -43 89 -68 106 -26 17 -52 19 -310
22 -324 4 -287 -11 -298 116 -4 38 -16 94 -26 125 -11 31 -23 65 -26 76 -4 11
-9 22 -12 25 -4 3 -22 25 -40 50 -66 88 -169 159 -266 185 -74 19 -265 20
-315 1z m301 -32 c157 -46 295 -190 339 -353 12 -47 16 -177 5 -210 l-6 -21
311 0 311 0 24 -24 c13 -13 27 -37 31 -53 4 -15 46 -107 95 -203 73 -146 97
-184 143 -230 l56 -54 0 -388 0 -388 -129 0 -128 0 -7 46 c-3 26 -6 64 -6 85
l0 39 -100 0 c-80 0 -100 -3 -100 -14 0 -8 -7 -22 -16 -30 -13 -14 -49 -16
-243 -16 -235 0 -251 3 -251 42 0 16 -11 18 -105 18 l-105 0 0 -54 c0 -29 -3
-68 -6 -85 l-6 -31 -134 0 -134 0 0 380 0 381 64 62 c54 53 106 128 106 153 0
3 -8 3 -17 -1 -42 -16 -137 -23 -205 -14 -159 22 -307 129 -379 275 -34 68
-34 69 -34 214 0 145 0 145 34 215 60 122 173 218 306 261 58 18 220 17 286
-2z"/>
<path d="M800 2479 c-53 -10 -181 -73 -206 -100 -17 -19 -16 -21 25 -63 58
-59 35 -74 -24 -16 l-43 42 -32 -43 c-40 -54 -64 -109 -79 -177 -19 -92 -19
-93 45 -90 39 2 58 -1 61 -9 3 -10 -12 -13 -56 -13 -69 0 -66 4 -50 -86 12
-63 45 -139 86 -192 l25 -34 43 42 c60 59 82 43 23 -17 l-43 -44 30 -26 c44
-36 141 -79 210 -92 32 -6 60 -11 61 -11 2 0 4 28 6 63 4 79 22 77 26 -3 2
-33 6 -60 10 -60 4 0 37 7 73 14 71 15 146 50 194 90 l30 25 -37 38 c-36 36
-48 63 -30 63 4 0 25 -18 47 -40 36 -37 40 -39 57 -23 42 38 97 163 113 256
l6 37 -66 0 c-49 0 -66 3 -62 13 3 8 23 11 66 9 33 -2 61 0 61 5 0 4 -7 38
-15 76 -14 67 -57 159 -96 206 l-20 24 -42 -41 c-24 -23 -46 -42 -50 -42 -18
0 -4 28 33 65 l41 42 -39 25 c-69 46 -137 76 -197 87 -32 6 -62 11 -67 11 -4
0 -8 -27 -8 -60 0 -47 -3 -60 -15 -60 -12 0 -15 13 -15 60 0 67 3 65 -80 49z
m44 -45 c3 -9 6 -27 6 -40 0 -13 5 -24 11 -24 5 0 8 -4 5 -9 -10 -15 32 -19
52 -5 11 7 22 31 26 54 l6 41 38 -7 c41 -8 98 -30 116 -45 6 -5 20 -16 30 -23
19 -13 19 -14 -3 -59 -19 -39 -20 -49 -9 -59 19 -19 62 -23 53 -6 -6 10 -5 10
5 1 11 -10 16 -9 25 4 18 24 46 25 52 2 3 -10 9 -19 13 -19 4 0 10 -8 13 -17
3 -10 13 -37 21 -60 25 -67 27 -90 8 -90 -35 0 -48 -4 -70 -23 -35 -29 -21
-58 34 -72 41 -11 44 -14 41 -45 -1 -18 -5 -33 -8 -33 -3 0 -6 -7 -6 -14 0
-18 -44 -108 -57 -118 -9 -6 -44 9 -56 23 -3 4 -15 9 -26 13 -16 5 -25 0 -38
-18 -16 -26 -13 -50 11 -74 7 -7 13 -19 13 -27 0 -15 -80 -65 -105 -65 -9 0
-14 -3 -12 -7 3 -5 -14 -9 -38 -11 -42 -3 -42 -3 -49 37 -6 38 -20 51 -58 56
-10 1 -16 -1 -13 -3 3 -3 -1 -12 -9 -21 -8 -9 -16 -27 -18 -41 -2 -21 -9 -25
-41 -27 -20 0 -40 3 -43 8 -3 5 -14 9 -25 9 -22 0 -99 48 -99 62 0 6 9 21 20
35 27 34 25 59 -5 79 -24 16 -27 15 -61 -11 -34 -26 -36 -26 -50 -9 -30 39
-63 112 -66 149 -3 36 -1 39 32 48 43 11 60 24 60 46 0 28 -17 43 -50 47 -19
2 -34 5 -36 7 -8 8 -15 59 -8 54 5 -3 10 5 10 17 2 30 39 110 59 126 13 11 19
9 40 -10 14 -13 25 -19 25 -14 0 5 4 4 8 -3 6 -9 13 -9 32 0 31 16 39 60 13
79 -28 20 -27 46 1 59 14 7 23 17 19 22 -4 6 0 8 10 4 9 -3 17 -2 19 3 2 5 28
16 58 24 70 19 67 19 74 0z"/>
<path d="M776 2348 c3 -4 -2 -8 -11 -8 -23 0 -52 -55 -47 -90 2 -16 7 -30 11
-30 4 0 8 -12 9 -27 1 -15 6 -29 10 -32 20 -14 50 -135 54 -216 1 -16 -9 -55
-22 -85 -12 -30 -29 -70 -36 -87 -10 -24 -10 -33 -2 -33 6 0 8 -3 5 -7 -11
-10 30 -34 47 -27 8 3 22 17 31 30 9 14 20 22 25 19 4 -3 6 3 3 14 -5 20 59
148 72 143 4 -2 11 0 14 5 9 13 61 34 61 25 0 -8 43 -6 108 4 72 11 95 83 41
128 -26 22 -40 26 -98 26 -87 0 -109 16 -147 107 -15 38 -35 77 -43 87 -14 16
-14 18 -1 11 8 -4 5 2 -7 14 -12 11 -29 21 -38 21 -9 0 -14 4 -11 8 2 4 -4 8
-14 8 -10 0 -16 -4 -14 -8z m38 -41 c14 -10 76 -142 93 -199 3 -10 14 -20 24
-23 10 -4 19 -11 19 -16 0 -6 36 -9 91 -8 94 3 108 -3 109 -43 0 -33 -44 -50
-117 -47 -40 2 -77 -2 -90 -9 -12 -7 -30 -12 -41 -12 -16 0 -28 -22 -61 -102
-51 -126 -58 -138 -66 -117 -6 15 37 134 70 199 13 25 12 29 -6 46 -17 15 -20
27 -16 57 4 30 -3 60 -34 133 -44 105 -46 116 -23 138 19 19 25 20 48 3z"/>
<path d="M780 2276 c0 -8 16 -55 36 -104 29 -71 40 -88 54 -85 15 4 12 16 -25
101 -40 90 -65 124 -65 88z"/>
<path d="M860 2045 c-16 -20 -5 -62 19 -70 40 -12 70 22 56 65 -8 24 -56 28
-75 5z"/>
<path d="M970 2020 c0 -20 5 -21 73 -18 56 2 72 6 72 18 0 12 -16 16 -72 18
-68 3 -73 2 -73 -18z"/>
<path d="M1366 1855 l-12 -30 334 -3 c184 -1 338 0 341 3 2 3 -6 17 -20 30
l-24 24 -303 3 -304 3 -12 -30z"/>
<path d="M1320 1761 c-19 -46 -122 -146 -178 -172 -38 -19 -55 -34 -73 -69
-13 -25 -25 -47 -26 -50 -2 -3 258 -5 577 -5 319 0 580 1 580 2 0 0 -37 74
-81 162 l-82 161 -352 0 -353 0 -12 -29z m707 -31 c10 -14 16 -33 15 -44 -2
-11 1 -16 7 -12 6 4 11 3 11 -3 0 -6 14 -33 31 -62 16 -28 28 -58 25 -66 -3
-8 -1 -11 4 -8 6 3 10 -3 10 -14 0 -20 -5 -20 -493 -21 -559 0 -571 1 -478 58
28 18 51 30 51 27 0 -7 86 83 121 126 16 20 26 39 23 42 -3 3 143 5 325 4
l331 -2 17 -25z"/>
<path d="M964 1375 l-52 -52 29 -169 c16 -93 29 -170 29 -171 0 -2 75 -3 168
-3 l167 0 0 132 0 133 318 3 317 2 0 -135 0 -135 170 0 170 0 0 27 c0 14 12
91 26 171 l25 145 -52 53 c-48 48 -58 54 -95 54 l-43 0 51 -48 c30 -29 48 -54
44 -60 -5 -9 -166 -12 -615 -12 -334 0 -611 3 -615 7 -3 4 17 31 46 60 l52 53
-44 -1 c-40 -1 -50 -7 -96 -54z m44 -92 l25 -21 -29 -25 c-20 -17 -31 -22 -35
-14 -11 21 -18 97 -8 91 5 -3 9 1 10 8 0 9 2 8 6 -2 4 -8 17 -25 31 -37z
m1282 7 c0 -15 -5 -41 -11 -58 -11 -31 -11 -31 -31 -12 -11 10 -17 23 -14 29
4 6 1 9 -7 5 -8 -3 -18 1 -23 8 -4 7 -4 10 1 6 4 -4 19 5 32 21 31 36 53 36
53 1z m-1022 -15 c15 -4 20 -10 15 -18 -4 -7 -10 -61 -13 -122 l-5 -110 -37
-2 c-21 0 -38 3 -38 8 0 5 4 9 9 9 5 0 19 20 31 45 24 49 21 106 -6 136 -9 10
-13 23 -8 30 4 7 3 10 -4 6 -5 -4 -18 -4 -28 0 -17 6 -17 7 0 13 26 9 58 11
84 5z m786 -12 c3 -8 -1 -16 -10 -20 -22 -8 -47 -63 -46 -100 1 -18 9 -47 19
-65 9 -18 16 -36 15 -40 -1 -4 5 -5 13 -2 8 4 15 1 15 -5 0 -18 -77 -14 -84 5
-3 9 -6 58 -6 109 0 99 -6 129 -23 118 -6 -3 -7 -1 -3 6 11 17 104 12 110 -6z
m-894 -28 c83 -43 60 -173 -34 -190 -104 -20 -166 114 -83 179 37 29 75 33
117 11z m1030 -2 c57 -33 66 -104 21 -155 -25 -28 -36 -33 -76 -33 -40 0 -51
5 -76 33 -81 90 26 217 131 155z"/>
<path d="M1051 1194 c-28 -35 -26 -69 4 -99 53 -54 132 -12 126 68 -4 56 -93
77 -130 31z m86 -27 c9 -6 9 -15 1 -33 -13 -28 -26 -30 -54 -9 -16 13 -17 16
-4 25 11 7 11 10 2 10 -7 0 -11 4 -7 9 7 12 46 11 62 -2z"/>
<path d="M2085 1195 c-14 -13 -25 -36 -25 -50 0 -33 42 -75 75 -75 33 0 75 42
75 75 0 33 -42 75 -75 75 -14 0 -37 -11 -50 -25z m76 -31 c17 -20 0 -49 -29
-50 -24 -1 -37 33 -20 53 14 17 33 16 49 -3z"/>
<path d="M1092 1385 l-44 -45 573 0 573 0 -44 45 -44 45 -486 0 -485 0 -43
-45z m261 -2 c-23 -2 -64 -2 -90 0 -26 2 -7 3 42 3 50 0 71 -1 48 -3z m295 0
c-32 -2 -84 -2 -115 0 -32 2 -6 3 57 3 63 0 89 -1 58 -3z"/>
<path d="M1330 1100 l0 -120 48 0 47 0 0 120 0 120 -47 0 -48 0 0 -120z"/>
<path d="M1455 1100 l0 -120 48 0 47 0 0 120 0 120 -47 0 -48 0 0 -120z"/>
<path d="M1580 1100 l0 -120 45 0 45 0 0 120 0 120 -45 0 -45 0 0 -120z"/>
<path d="M1695 1100 l0 -120 48 0 47 0 0 120 0 120 -47 0 -48 0 0 -120z"/>
<path d="M1820 1100 l0 -120 45 0 45 0 0 120 0 120 -45 0 -45 0 0 -120z"/>
<path d="M911 873 l-1 -283 110 0 110 0 0 53 c0 28 3 62 6 75 6 22 5 22 -95
22 l-101 0 -1 123 c0 67 -6 160 -13 207 -13 81 -13 73 -15 -197z m184 -213 l0
-35 -70 0 -70 0 -3 34 c-2 19 1 37 6 40 6 3 39 4 74 1 l63 -5 0 -35z"/>
<path d="M2312 1043 c-7 -43 -12 -129 -12 -190 l0 -113 -98 0 -98 0 4 -42 c1
-24 5 -58 8 -75 l5 -33 104 0 105 0 0 265 c0 146 -1 265 -3 265 -2 0 -9 -35
-15 -77z m-14 -378 l-3 -40 -65 -3 c-52 -2 -67 0 -77 14 -17 24 -16 31 7 54
17 17 32 20 81 18 l60 -2 -3 -41z"/>
<path d="M970 860 l0 -90 200 0 200 0 0 33 c0 18 5 38 12 45 9 9 76 12 239 12
250 0 259 -2 259 -61 l0 -29 195 0 195 0 0 90 0 90 -650 0 -650 0 0 -90z m405
47 c7 -3 15 -1 18 6 2 8 5 8 10 -1 5 -7 -4 -17 -23 -27 -16 -8 -30 -19 -30
-24 0 -4 -11 -20 -24 -34 -20 -22 -33 -27 -66 -25 -47 2 -53 8 -41 40 5 15 5
31 0 40 -7 12 -5 19 5 25 16 9 128 8 151 0z m647 -9 c4 -7 7 -31 6 -53 -3 -38
-5 -40 -37 -42 -43 -2 -81 12 -81 30 0 16 -37 51 -65 62 -19 7 -19 8 3 14 42
11 164 4 174 -11z m-842 -38 l0 -51 -72 3 -73 3 -3 33 c-5 55 0 60 77 61 l71
1 0 -50z m640 43 c0 -5 -48 -7 -107 -5 -193 4 -211 8 -50 10 86 1 157 -1 157
-5z m385 -43 l0 -45 -70 0 -70 0 -3 33 c-6 58 0 63 75 60 l68 -3 0 -45z"/>
<path d="M1060 860 c0 -17 7 -20 50 -20 43 0 50 3 50 20 0 17 -7 20 -50 20
-43 0 -50 -3 -50 -20z"/>
<path d="M2090 860 c0 -17 7 -20 45 -20 38 0 45 3 45 20 0 17 -7 20 -45 20
-38 0 -45 -3 -45 -20z"/>
<path d="M1397 778 c-2 -29 -3 -56 0 -60 2 -5 105 -8 229 -8 l225 0 -3 58 -3
57 -221 3 -221 2 -6 -52z m413 -7 c0 -11 -7 -22 -16 -25 -9 -4 -93 -6 -186 -5
-140 1 -168 4 -164 15 3 8 1 14 -4 14 -5 0 -7 6 -5 13 4 9 49 11 190 9 172 -3
185 -4 185 -21z"/>
</g>
</svg>
